Coordinates
version=1
nRows=9
nColumns=36
inDegrees=yes

Units are S.I. units (second, meters, Newtons, ...)
If the header above contains a line with 'inDegrees', this indicates whether rotational values are in degrees (yes) or radians (no).

endheader
time	pelvis_tilt	pelvis_list	pelvis_rotation	pelvis_tx	pelvis_ty	pelvis_tz	hip_flexion_r	hip_adduction_r	hip_rotation_r	knee_angle_r	knee_angle_r_beta	ankle_angle_r	subtalar_angle_r	mtp_angle_r	hip_flexion_l	hip_adduction_l	hip_rotation_l	knee_angle_l	knee_angle_l_beta	ankle_angle_l	subtalar_angle_l	mtp_angle_l	lumbar_extension	lumbar_bending	lumbar_rotation	arm_flex_r	arm_add_r	arm_rot_r	elbow_flex_r	pro_sup_r	arm_flex_l	arm_add_l	arm_rot_l	elbow_flex_l	pro_sup_l
      2.78333330	     -8.83415523	     -1.88029156	      0.18140490	      0.11702342	      0.72979434	     -0.05854213	     65.96984422	     -5.28039374	      0.61539076	     81.29828998	      1.41892284	     17.95364210	    -22.07466549	     -7.49999987	     66.66864637	     -9.22606210	      8.84626227	     82.50845743	      1.44004424	     18.79402722	    -11.12423990	     -7.49999987	    -30.25593653	     -0.41273871	     -4.26434350	     41.70203740	    -14.85157828	      8.13805939	    112.49337338	     92.79593297	     56.20873480	     -6.44997389	     22.82078763	     99.08515712	     79.86060429
      2.78750000	     -9.05995654	     -1.77588313	      0.14449686	      0.11501568	      0.72678740	     -0.05992800	     66.53534593	     -5.44125000	      0.80944214	     81.84315974	      1.42843261	     18.37644018	    -21.51031179	     -7.49999987	     67.20877289	     -9.01833560	      8.70332770	     83.10114995	      1.45038868	     19.00743132	    -11.15355264	     -7.49999987	    -31.26474235	     -0.27196217	     -4.00221255	     41.74555052	    -14.72820732	      8.21992943	    111.37073023	     92.02193352	     56.10275251	     -6.17004527	     22.77163569	     98.61613938	     79.43699883
      2.79166670	     -9.72632334	     -1.67342708	      0.07438992	      0.11582838	      0.72242916	     -0.06150056	     67.74413445	     -5.65352916	      0.97136512	     82.55362900	      1.44083264	     18.67543853	    -21.24319583	     -7.49999987	     68.33362007	     -8.86066427	      8.65946995	     83.81886780	      1.46291522	     19.31509832	    -11.29955840	     -7.49999987	    -31.24732025	     -0.25764278	     -4.01053372	     41.75526710	    -14.35555522	      8.31896034	    107.71124084	     91.04252016	     55.47646935	     -5.57814200	     21.85012868	     96.59661430	     78.34861302
      2.79583330	    -10.09143583	     -1.58733369	      0.05614850	      0.11954299	      0.71663715	     -0.06142961	     68.62744726	     -5.88869521	      1.06915410	     83.44972112	      1.45647239	     19.08672837	    -20.91783857	     -7.49999987	     69.13492049	     -8.72777750	      8.64299912	     84.68313070	      1.47799945	     19.82758535	    -11.12793575	     -7.49999987	    -31.73338133	     -0.10296688	     -4.07789166	     41.68094928	    -14.04460905	      7.85870680	    105.51259984	     91.28218157	     54.93745421	     -5.45286460	     21.11842029	     95.71843090	     78.12955662
      2.80000000	    -10.29632613	     -1.47810875	     -0.12386107	      0.11967431	      0.71610873	     -0.06298415	     69.12182464	     -5.99814116	      1.14139689	     83.90175400	      1.46436186	     19.45575360	    -20.45597291	     -7.49999987	     69.54449966	     -8.66397454	      8.55448748	     85.27860980	      1.48839252	     20.04954019	    -11.33445100	     -7.49999987	    -32.61400740	     -0.08222068	     -4.06260319	     42.09037669	    -13.90934537	      7.44758133	    103.02202890	     90.39043219	     54.61424527	     -5.29639765	     20.24866889	     94.40020689	     77.26727656
      2.80416670	    -10.46650754	     -1.40222493	     -0.40269406	      0.12416558	      0.71140110	     -0.06537930	     69.61832389	     -6.10371891	      1.41122930	     84.62406730	      1.47696860	     20.06292272	    -19.77750333	     -7.49999987	     69.89846168	     -8.72254884	      8.58262714	     86.10575514	      1.50282893	     20.62310147	    -11.16562991	     -7.49999987	    -33.25921713	      0.01709271	     -4.04039685	     41.92082844	    -14.04421980	      7.08560756	    100.30430166	     90.43057922	     54.01305058	     -5.14832007	     19.78552049	     93.53219886	     76.87870199
      2.80833330	    -10.59436065	     -1.28358950	     -0.61213333	      0.12739263	      0.70913031	     -0.06797695	     69.94692383	     -6.35222814	      1.73634477	     85.21231808	      1.48723551	     20.61366132	    -18.95342484	     -7.49999987	     70.03914321	     -8.66070759	      8.45150331	     86.76548069	      1.51434332	     21.30821782	    -10.92297970	     -7.49999987	    -33.96846957	      0.08372225	     -4.19438956	     41.97225622	    -14.08727320	      7.00936947	     97.23683218	     89.40812678	     53.54829288	     -5.07287533	     19.23005479	     91.92530838	     75.72599256
      2.81250000	    -10.72793732	     -1.20472184	     -0.92411879	      0.12979163	      0.70369924	     -0.07010895	     70.56785890	     -6.53537121	      1.90923324	     86.18117154	      1.50414520	     21.23429244	    -18.06177647	     -7.49999987	     70.32854760	     -8.68191701	      8.38140975	     87.62499372	      1.52934465	     22.12190333	    -11.03208173	     -7.49999987	    -34.75605008	      0.21602140	     -3.92148292	     41.56056323	    -14.43881878	      6.84633329	     94.75717282	     88.37961590	     52.74552340	     -4.71643846	     18.47665201	     90.96014955	     74.73444473
      2.81666670	    -11.04862024	     -1.18192029	     -1.21906950	      0.13342516	      0.69675871	     -0.07270705	     71.49436428	     -6.81086870	      2.02216895	     87.31081207	      1.52386114	     21.96676817	    -17.13062540	     -7.49999987	     71.08337175	     -8.66211105	      8.38504835	     88.92713395	      1.55207128	     22.93324111	    -11.09945978	     -7.49999987	    -35.07634906	      0.53682028	     -3.74265212	     41.48788810	    -14.98403977	      6.54029746	     92.23909169	     88.35085940	     51.76835195	     -4.42166174	     17.22035753	     89.66348685	     73.98908117
